<svg width="121.000107" height="54.520004" viewBox="0 0 121 54.52" fill="none" xmlns="http://www.w3.org/2000/svg" xmlns:xlink="http://www.w3.org/1999/xlink">
	<desc>
			Created with Pixso.
	</desc>
	<path id="S" d="M19.9072 34.9775C19.9072 39.1523 16.4531 42.4658 10.9424 42.4658C7.19824 42.4658 3.99902 40.9541 1.69629 38.5459L3.67383 36.2783C5.58105 38.2559 8.24414 39.5479 10.9775 39.5479C14.4316 39.5479 16.5234 37.8252 16.5234 35.2324C16.5234 32.5342 14.6162 31.6641 12.1289 30.5479L8.31445 28.8955C5.87109 27.8496 2.95312 25.9775 2.95312 22.1279C2.95312 18.0586 6.47754 15.1055 11.2676 15.1055C14.3965 15.1055 17.1738 16.4414 19.0459 18.3838L17.2793 20.5107C15.6621 18.999 13.7197 18.0234 11.2676 18.0234C8.2793 18.0234 6.33691 19.5352 6.33691 21.9082C6.33691 24.4658 8.63965 25.4414 10.6963 26.3027L14.4756 27.9199C17.5342 29.2559 19.9072 31.0576 19.9072 34.9775Z" fill="#006FFFFF"/>
	<path id="S" d="M10.9424 42.4658C16.4531 42.4658 19.9072 39.1523 19.9072 34.9775C19.9072 31.0576 17.5342 29.2559 14.4756 27.9199L10.6963 26.3027C8.63965 25.4414 6.33691 24.4658 6.33691 21.9082C6.33691 19.5352 8.2793 18.0234 11.2676 18.0234C13.7197 18.0234 15.6621 18.999 17.2793 20.5107L19.0459 18.3838C17.1738 16.4414 14.3965 15.1055 11.2676 15.1055C6.47754 15.1055 2.95312 18.0586 2.95312 22.1279C2.95312 25.9775 5.87109 27.8496 8.31445 28.8955L12.1289 30.5479C14.6162 31.6641 16.5234 32.5342 16.5234 35.2324C16.5234 37.8252 14.4316 39.5479 10.9775 39.5479C8.24414 39.5479 5.58105 38.2559 3.67383 36.2783L1.69629 38.5459C3.99902 40.9541 7.19824 42.4658 10.9424 42.4658Z" fill="#006FFFFF"/>
	<path id="e" d="M37.3726 40.4531C35.6499 41.5693 33.5581 42.4658 30.8951 42.4658C25.7095 42.4658 21.5347 38.6865 21.5347 32.2441C21.5347 25.9072 25.815 21.9521 30.3501 21.9521C35.3247 21.9521 38.1284 25.5469 38.1284 31.1279C38.1284 31.8486 38.0581 32.5342 37.9878 33L24.813 33C25.024 37.1748 27.5816 39.8379 31.2906 39.8379C33.1978 39.8379 34.7447 39.2666 36.1861 38.291L37.3726 40.4531ZM30.3941 24.5801C27.6167 24.5801 25.1734 26.8037 24.7779 30.6621L35.2456 30.6621C35.2456 26.6982 33.4527 24.5801 30.3941 24.5801Z" fill="#009CFFFF"/>
	<path id="e" d="M30.8951 42.4658C33.5581 42.4658 35.6499 41.5693 37.3726 40.4531L36.1861 38.291C34.7447 39.2666 33.1978 39.8379 31.2906 39.8379C27.5816 39.8379 25.024 37.1748 24.813 33L37.9878 33C38.0581 32.5342 38.1284 31.8486 38.1284 31.1279C38.1284 25.5469 35.3247 21.9521 30.3501 21.9521C25.815 21.9521 21.5347 25.9072 21.5347 32.2441C21.5347 38.6865 25.7095 42.4658 30.8951 42.4658ZM24.7779 30.6621C25.1734 26.8037 27.6167 24.5801 30.3941 24.5801C33.4527 24.5801 35.2456 26.6982 35.2456 30.6621L24.7779 30.6621Z" fill="#009CFFFF"/>
	<path id="a" d="M53.6865 39.6621C51.8144 41.209 49.6172 42.4658 47.209 42.4658C43.9306 42.4658 41.4873 40.4531 41.4873 36.9199C41.4873 32.6748 45.1875 30.5479 53.5107 29.6162C53.5107 27.0938 52.6758 24.6855 49.4765 24.6855C47.209 24.6855 45.1523 25.7314 43.6054 26.7686L42.3134 24.501C44.1152 23.3496 46.8838 21.9521 50.0127 21.9521C54.7675 21.9521 56.7802 25.1514 56.7802 29.9766L56.7802 42L54.082 42L53.792 39.6621L53.6865 39.6621ZM44.6865 36.709C44.6865 38.9414 46.1982 39.8379 48.1406 39.8379C50.0478 39.8379 51.6035 38.9414 53.5107 37.2451L53.5107 31.7783C46.9189 32.5693 44.6865 34.1865 44.6865 36.709Z" fill="#35D7C0FF"/>
	<path id="a" d="M47.209 42.4658C49.6172 42.4658 51.8144 41.209 53.6865 39.6621L53.792 39.6621L54.082 42L56.7802 42L56.7802 29.9766C56.7802 25.1514 54.7675 21.9521 50.0127 21.9521C46.8838 21.9521 44.1152 23.3496 42.3134 24.501L43.6054 26.7686C45.1523 25.7314 47.209 24.6855 49.4765 24.6855C52.6758 24.6855 53.5107 27.0938 53.5107 29.6162C45.1875 30.5479 41.4873 32.6748 41.4873 36.9199C41.4873 40.4531 43.9306 42.4658 47.209 42.4658ZM48.1406 39.8379C46.1982 39.8379 44.6865 38.9414 44.6865 36.709C44.6865 34.1865 46.9189 32.5693 53.5107 31.7783L53.5107 37.2451C51.6035 38.9414 50.0478 39.8379 48.1406 39.8379Z" fill="#35D7C0FF"/>
	<path id="g" d="M78.8597 45.2324C78.8597 48.8711 75.0453 52 68.9896 52C64.2083 52 60.8949 50.1279 60.8949 46.7441C60.8949 45.0918 61.9759 43.501 63.8128 42.3145L63.8128 42.1738C62.7669 41.5586 62.0111 40.5127 62.0111 38.9658C62.0111 37.3486 63.1976 36.0479 64.2083 35.3359L64.2083 35.1865C62.9076 34.1406 61.6507 32.2686 61.6507 29.9307C61.6507 25.6504 65.0345 22.9521 68.9896 22.9521C70.0706 22.9521 71.0462 23.1982 71.7318 23.4531L78.5345 23.4531L78.5345 25.9756L74.5355 25.9756C75.4759 26.8721 76.1175 28.3135 76.1175 30.001C76.1175 34.1758 72.9535 36.8037 68.9896 36.8037C68.0228 36.8037 66.9417 36.5576 66.0804 36.127C65.3597 36.7334 64.8148 37.3838 64.8148 38.4648C64.8148 39.7217 65.6058 40.5918 68.2337 40.5918L72.057 40.5918C76.5921 40.5918 78.8597 42.0244 78.8597 45.2324ZM64.8148 29.9307C64.8148 32.7783 66.722 34.5801 68.9896 34.5801C71.222 34.5801 73.1292 32.7783 73.1292 29.9307C73.1292 27.0918 71.3011 25.3604 68.9896 25.3604C66.6869 25.3604 64.8148 27.0479 64.8148 29.9307ZM63.7689 46.3135C63.7689 48.3965 65.8958 49.7676 69.4642 49.7676C73.2083 49.7676 75.6869 47.79 75.6869 45.7334C75.6869 43.9316 74.2894 43.3252 71.6966 43.3252L68.3128 43.3252C67.5921 43.3252 66.6517 43.2197 65.7904 43C64.3841 44.0107 63.7689 45.1621 63.7689 46.3135Z" fill="#00B836FF"/>
	<path id="g" d="M68.9896 52C75.0453 52 78.8597 48.8711 78.8597 45.2324C78.8597 42.0244 76.5921 40.5918 72.057 40.5918L68.2337 40.5918C65.6058 40.5918 64.8148 39.7217 64.8148 38.4648C64.8148 37.3838 65.3597 36.7334 66.0804 36.127C66.9417 36.5576 68.0228 36.8037 68.9896 36.8037C72.9535 36.8037 76.1175 34.1758 76.1175 30.001C76.1175 28.3135 75.4759 26.8721 74.5355 25.9756L78.5345 25.9756L78.5345 23.4531L71.7318 23.4531C71.0462 23.1982 70.0706 22.9521 68.9896 22.9521C65.0345 22.9521 61.6507 25.6504 61.6507 29.9307C61.6507 32.2686 62.9076 34.1406 64.2083 35.1865L64.2083 35.3359C63.1976 36.0479 62.0111 37.3486 62.0111 38.9658C62.0111 40.5127 62.7669 41.5586 63.8128 42.1738L63.8128 42.3145C61.9759 43.501 60.8949 45.0918 60.8949 46.7441C60.8949 50.1279 64.2083 52 68.9896 52ZM68.9896 34.5801C66.722 34.5801 64.8148 32.7783 64.8148 29.9307C64.8148 27.0479 66.6869 25.3604 68.9896 25.3604C71.3011 25.3604 73.1292 27.0918 73.1292 29.9307C73.1292 32.7783 71.222 34.5801 68.9896 34.5801ZM69.4642 49.7676C65.8958 49.7676 63.7689 48.3965 63.7689 46.3135C63.7689 45.1621 64.3841 44.0107 65.7904 43C66.6517 43.2197 67.5921 43.3252 68.3128 43.3252L71.6966 43.3252C74.2894 43.3252 75.6869 43.9316 75.6869 45.7334C75.6869 47.79 73.2083 49.7676 69.4642 49.7676Z" fill="#00B836FF"/>
	<path id="i" d="M86.0242 16.2921C86.0242 17.5225 85.0574 18.419 83.7567 18.419C82.4647 18.419 81.4891 17.5225 81.4891 16.2921C81.4891 14.9649 82.4647 14.1739 83.7567 14.1739C85.0574 14.1739 86.0242 14.9649 86.0242 16.2921ZM85.3826 42.0001L82.1043 42.0001L82.1043 22.4532L85.3826 22.4532L85.3826 42.0001Z" fill="#FF0048FF"/>
	<path id="i" d="M82.1043 42.0001L85.3826 42.0001L85.3826 22.4532L82.1043 22.4532L82.1043 42.0001ZM83.7567 18.419C85.0574 18.419 86.0242 17.5225 86.0242 16.2921C86.0242 14.9649 85.0574 14.1739 83.7567 14.1739C82.4647 14.1739 81.4891 14.9649 81.4891 16.2921C81.4891 17.5225 82.4647 18.419 83.7567 18.419Z" fill="#FF0048FF"/>
	<path id="l" d="M101.535 42.1758C101.07 42.3604 100.49 42.4659 99.6282 42.4659C97.1848 42.4659 96.1741 40.8839 96.1741 38.1153L96.1741 13.3477L99.4524 13.3477L99.4524 38.3262C99.4524 39.337 99.8831 39.7325 100.384 39.7325C100.569 39.7325 100.709 39.7325 101.07 39.6622L101.535 42.1758Z" fill="#B526E1FF"/>
	<path id="l" d="M99.6282 42.4659C100.49 42.4659 101.07 42.3604 101.535 42.1758L101.07 39.6622C100.709 39.7325 100.569 39.7325 100.384 39.7325C99.8831 39.7325 99.4524 39.337 99.4524 38.3262L99.4524 13.3477L96.1741 13.3477L96.1741 38.1153C96.1741 40.8839 97.1848 42.4659 99.6282 42.4659Z" fill="#B526E1FF"/>
	<path id="l" d="M115.605 42.1758C115.139 42.3604 114.559 42.4659 113.698 42.4659C111.255 42.4659 110.244 40.8839 110.244 38.1153L110.244 13.3477L113.522 13.3477L113.522 38.3262C113.522 39.337 113.953 39.7325 114.454 39.7325C114.638 39.7325 114.779 39.7325 115.139 39.6622L115.605 42.1758Z" fill="#8B00FFFF"/>
	<path id="l" d="M113.698 42.4659C114.559 42.4659 115.139 42.3604 115.605 42.1758L115.139 39.6622C114.779 39.7325 114.638 39.7325 114.454 39.7325C113.953 39.7325 113.522 39.337 113.522 38.3262L113.522 13.3477L110.244 13.3477L110.244 38.1153C110.244 40.8839 111.255 42.4659 113.698 42.4659Z" fill="#8B00FFFF"/>
	<defs>
		<filter id="filter_2_2_dd" x="0.000000" y="0.240005" width="21.492004" height="53.279999" filterUnits="userSpaceOnUse" color-interpolation-filters="sRGB">
			<feFlood flood-opacity="0" result="BackgroundImageFix"/>
			<feBlend mode="normal" in="SourceGraphic" in2="BackgroundImageFix" result="shape"/>
			<feColorMatrix in="SourceAlpha" type="matrix" values="0 0 0 0 0 0 0 0 0 0 0 0 0 0 0 0 0 0 127 0" result="hardAlpha"/>
			<feOffset dx="0" dy="4"/>
			<feGaussianBlur stdDeviation="1.33333"/>
			<feComposite in2="hardAlpha" operator="arithmetic" k2="-1" k3="1"/>
			<feColorMatrix type="matrix" values="0 0 0 0 0.51373 0 0 0 0 0.25098 0 0 0 0 0.25098 0 0 0 0.35 0"/>
			<feBlend mode="normal" in2="shape" result="effect_innerShadow_1"/>
		</filter>
		<filter id="filter_2_3_dd" x="19.697784" y="0.240005" width="19.944000" height="53.279999" filterUnits="userSpaceOnUse" color-interpolation-filters="sRGB">
			<feFlood flood-opacity="0" result="BackgroundImageFix"/>
			<feBlend mode="normal" in="SourceGraphic" in2="BackgroundImageFix" result="shape"/>
			<feColorMatrix in="SourceAlpha" type="matrix" values="0 0 0 0 0 0 0 0 0 0 0 0 0 0 0 0 0 0 127 0" result="hardAlpha"/>
			<feOffset dx="0" dy="4"/>
			<feGaussianBlur stdDeviation="1.33333"/>
			<feComposite in2="hardAlpha" operator="arithmetic" k2="-1" k3="1"/>
			<feColorMatrix type="matrix" values="0 0 0 0 0.51373 0 0 0 0 0.25098 0 0 0 0 0.25098 0 0 0 0.35 0"/>
			<feBlend mode="normal" in2="shape" result="effect_innerShadow_1"/>
		</filter>
		<filter id="filter_2_4_dd" x="39.395477" y="0.240005" width="20.304001" height="53.279999" filterUnits="userSpaceOnUse" color-interpolation-filters="sRGB">
			<feFlood flood-opacity="0" result="BackgroundImageFix"/>
			<feBlend mode="normal" in="SourceGraphic" in2="BackgroundImageFix" result="shape"/>
			<feColorMatrix in="SourceAlpha" type="matrix" values="0 0 0 0 0 0 0 0 0 0 0 0 0 0 0 0 0 0 127 0" result="hardAlpha"/>
			<feOffset dx="0" dy="4"/>
			<feGaussianBlur stdDeviation="1.33333"/>
			<feComposite in2="hardAlpha" operator="arithmetic" k2="-1" k3="1"/>
			<feColorMatrix type="matrix" values="0 0 0 0 0.51373 0 0 0 0 0.25098 0 0 0 0 0.25098 0 0 0 0.35 0"/>
			<feBlend mode="normal" in2="shape" result="effect_innerShadow_1"/>
		</filter>
		<filter id="filter_2_5_dd" x="59.093109" y="1.240005" width="20.268005" height="53.279999" filterUnits="userSpaceOnUse" color-interpolation-filters="sRGB">
			<feFlood flood-opacity="0" result="BackgroundImageFix"/>
			<feBlend mode="normal" in="SourceGraphic" in2="BackgroundImageFix" result="shape"/>
			<feColorMatrix in="SourceAlpha" type="matrix" values="0 0 0 0 0 0 0 0 0 0 0 0 0 0 0 0 0 0 127 0" result="hardAlpha"/>
			<feOffset dx="0" dy="4"/>
			<feGaussianBlur stdDeviation="1.33333"/>
			<feComposite in2="hardAlpha" operator="arithmetic" k2="-1" k3="1"/>
			<feColorMatrix type="matrix" values="0 0 0 0 0.51373 0 0 0 0 0.25098 0 0 0 0 0.25098 0 0 0 0.35 0"/>
			<feBlend mode="normal" in2="shape" result="effect_innerShadow_1"/>
		</filter>
		<filter id="filter_2_6_dd" x="78.790833" y="0.240067" width="9.900009" height="53.279999" filterUnits="userSpaceOnUse" color-interpolation-filters="sRGB">
			<feFlood flood-opacity="0" result="BackgroundImageFix"/>
			<feBlend mode="normal" in="SourceGraphic" in2="BackgroundImageFix" result="shape"/>
			<feColorMatrix in="SourceAlpha" type="matrix" values="0 0 0 0 0 0 0 0 0 0 0 0 0 0 0 0 0 0 127 0" result="hardAlpha"/>
			<feOffset dx="0" dy="4"/>
			<feGaussianBlur stdDeviation="1.33333"/>
			<feComposite in2="hardAlpha" operator="arithmetic" k2="-1" k3="1"/>
			<feColorMatrix type="matrix" values="0 0 0 0 0.51373 0 0 0 0 0.25098 0 0 0 0 0.25098 0 0 0 0.35 0"/>
			<feBlend mode="normal" in2="shape" result="effect_innerShadow_1"/>
		</filter>
		<filter id="filter_2_7_dd" x="92.860596" y="0.240067" width="10.260010" height="53.279999" filterUnits="userSpaceOnUse" color-interpolation-filters="sRGB">
			<feFlood flood-opacity="0" result="BackgroundImageFix"/>
			<feBlend mode="normal" in="SourceGraphic" in2="BackgroundImageFix" result="shape"/>
			<feColorMatrix in="SourceAlpha" type="matrix" values="0 0 0 0 0 0 0 0 0 0 0 0 0 0 0 0 0 0 127 0" result="hardAlpha"/>
			<feOffset dx="0" dy="4"/>
			<feGaussianBlur stdDeviation="1.33333"/>
			<feComposite in2="hardAlpha" operator="arithmetic" k2="-1" k3="1"/>
			<feColorMatrix type="matrix" values="0 0 0 0 0.51373 0 0 0 0 0.25098 0 0 0 0 0.25098 0 0 0 0.35 0"/>
			<feBlend mode="normal" in2="shape" result="effect_innerShadow_1"/>
		</filter>
		<filter id="filter_2_8_dd" x="106.930359" y="0.240067" width="10.260010" height="53.279999" filterUnits="userSpaceOnUse" color-interpolation-filters="sRGB">
			<feFlood flood-opacity="0" result="BackgroundImageFix"/>
			<feBlend mode="normal" in="SourceGraphic" in2="BackgroundImageFix" result="shape"/>
			<feColorMatrix in="SourceAlpha" type="matrix" values="0 0 0 0 0 0 0 0 0 0 0 0 0 0 0 0 0 0 127 0" result="hardAlpha"/>
			<feOffset dx="0" dy="4"/>
			<feGaussianBlur stdDeviation="1.33333"/>
			<feComposite in2="hardAlpha" operator="arithmetic" k2="-1" k3="1"/>
			<feColorMatrix type="matrix" values="0 0 0 0 0.51373 0 0 0 0 0.25098 0 0 0 0 0.25098 0 0 0 0.35 0"/>
			<feBlend mode="normal" in2="shape" result="effect_innerShadow_1"/>
		</filter>
	</defs>
</svg>
